name C:\Users\u0101727\Documents\MyRepositories\paper-ad\predictivesimulations_2d/Results/PredSim_2D/IK_c30.mot
datacolumns 11
datarows 25
range 1.07177529 1.26517835
endheader
time	pelvis_tilt	pelvis_tx	pelvis_ty	hip_flexion_l	hip_flexion_r	knee_angle_l	knee_angle_r	ankle_angle_l	ankle_angle_r	lumbar_extension	
          1.07177529	        -10.69712409	          1.43119876	          0.90077051	         14.96820505	         12.00183502	        -50.97838215	        -25.05589519	         -5.97940538	         11.15048094	          7.03555487	
          1.07983375	        -10.71660153	          1.44102082	          0.90213945	         16.16415499	         11.10316998	        -51.16329720	        -24.41586841	         -4.70213396	         10.28830394	          6.99437860	
          1.08789221	        -10.73772943	          1.45086326	          0.90356870	         17.35451703	         10.19978518	        -51.22012974	        -23.74826045	         -3.46543807	          9.34643207	          6.95395113	
          1.09595067	        -10.76048724	          1.46073682	          0.90505600	         18.53325409	          9.29396147	        -51.14271631	        -23.05763802	         -2.28103426	          8.32257020	          6.91480389	
          1.10400914	        -10.78482262	          1.47065262	          0.90659794	         19.69370310	          8.38829355	        -50.92394499	        -22.34887794	         -1.16060886	          7.21460006	          6.87753752	
          1.11206760	        -10.81053528	          1.48062235	          0.90818890	         20.82907774	          7.48540755	        -50.56237679	        -21.62797851	         -0.11589176	          6.02260464	          6.84276518	
          1.12012606	        -10.83740057	          1.49065878	          0.90982155	         21.93124398	          6.58800578	        -50.05509555	        -20.90130065	          0.84169860	          4.74853588	          6.81130501	
          1.12818452	        -10.86498893	          1.50077547	          0.91148484	         22.99197612	          5.69870917	        -49.40625153	        -20.17676672	          1.70125020	          3.39936805	          6.78400220	
          1.13624298	        -10.89277967	          1.51098655	          0.91316332	         24.00081301	          4.82124324	        -48.61767498	        -19.46661753	          2.45319593	          1.99005316	          6.76184450	
          1.14430144	        -10.92009059	          1.52130395	          0.91483337	         24.94665708	          3.96161222	        -47.68731850	        -18.79098730	          3.08998776	          0.55874509	          6.74555907	
          1.15235990	        -10.94630289	          1.53173887	          0.91645101	         25.81895745	          3.12071388	        -46.61713430	        -18.16899049	          3.60668818	         -0.83699580	          6.73609144	
          1.16041836	        -10.97128546	          1.54229769	          0.91795080	         26.60886217	          2.29528265	        -45.41684268	        -17.57916496	          4.00229066	         -2.17300247	          6.73467050	
          1.16847682	        -10.99279000	          1.55300566	          0.91925403	         27.31355437	          1.46282642	        -44.08560043	        -17.17734558	          4.28008989	         -3.33852540	          6.74310712	
          1.17653528	        -11.01079039	          1.56378095	          0.92023351	         27.94734066	          0.68096747	        -42.63252841	        -16.89007248	          4.45068494	         -4.43099621	          6.75228685	
          1.18459374	        -11.02418523	          1.57462753	          0.92085459	         28.50267643	         -0.04039056	        -41.08552186	        -16.73274053	          4.52630598	         -5.51367187	          6.76233506	
          1.19265220	        -11.03213847	          1.58554701	          0.92112265	         28.98262159	         -0.69254793	        -39.48435752	        -16.72629493	          4.52146888	         -6.65213753	          6.77244475	
          1.20071067	        -11.03737647	          1.59652650	          0.92106735	         29.38734616	         -1.26100467	        -37.85576819	        -16.69269234	          4.45886436	         -7.94575866	          6.78272788	
          1.20876913	        -11.03895587	          1.60766294	          0.92076505	         29.69981312	         -1.80661518	        -36.21293007	        -16.72692755	          4.36356086	         -9.23697825	          6.80363924	
          1.21682759	        -11.03540124	          1.61895198	          0.92020999	         29.92830891	         -2.31735047	        -34.59152686	        -16.84672553	          4.26363082	        -10.44395695	          6.83344386	
          1.22488605	        -11.02423079	          1.63040559	          0.91936149	         30.07471847	         -2.79950243	        -33.01208721	        -17.20386247	          4.19192074	        -11.50791444	          6.87191097	
          1.23294451	        -11.00628585	          1.64195676	          0.91815165	         30.15438782	         -3.21361248	        -31.49617133	        -17.71841195	          4.18522564	        -12.52096565	          6.91233185	
          1.24100297	        -10.98226036	          1.65359679	          0.91655947	         30.17361974	         -3.56028776	        -30.07619223	        -18.35547510	          4.27856033	        -13.54196334	          6.95439564	
          1.24906143	        -10.95199128	          1.66532417	          0.91458915	         30.13385838	         -3.83270653	        -28.77922512	        -19.13940842	          4.50439152	        -14.58028813	          6.99739860	
          1.25711989	        -10.91564506	          1.67713323	          0.91223402	         30.03884265	         -4.02888802	        -27.63828448	        -20.07238415	          4.88802444	        -15.67065142	          7.04057708	
          1.26517835	        -10.87314276	          1.68902338	          0.90949663	         29.88459299	         -4.14597201	        -26.69338084	        -21.17066001	          5.44370153	        -16.83201316	          7.08351653	
